<?xml version="1.0" encoding="UTF-8"?>
<svg width="512px" height="512px" viewBox="0 0 512 512" version="1.1" xmlns="http://www.w3.org/2000/svg" xmlns:xlink="http://www.w3.org/1999/xlink">
    <title>Group</title>
    <defs>
        <radialGradient cx="50%" cy="0%" fx="50%" fy="0%" r="100%" id="radialGradient-1">
            <stop stop-color="#BA3100" stop-opacity="0.624754152" offset="0%"></stop>
            <stop stop-color="#05796C" offset="100%"></stop>
        </radialGradient>
    </defs>
    <g id="Page-1" stroke="none" stroke-width="1" fill="none" fill-rule="evenodd">
        <g id="Group">
            <path d="M512,365.858544 C512,416.675112 506.70894,435.102427 496.773436,453.680205 C486.837932,472.257983 472.257983,486.837932 453.680205,496.773436 C435.102427,506.70894 416.675112,512 365.858544,512 L365.858544,512 L146.141456,512 L144.626644,511.998413 C94.9563269,511.893714 76.7117949,506.609585 58.3197949,496.773436 C39.7420171,486.837932 25.1620684,472.257983 15.2265641,453.680205 C5.29105984,435.102427 2.28704159e-15,416.675112 -3.93619317e-15,365.858544 L-3.93619317e-15,365.858544 L3.93619317e-15,146.141456 L0.00158667134,144.626644 C0.106285641,94.9563269 5.39041488,76.7117949 15.2265641,58.3197949 C25.1620684,39.7420171 39.7420171,25.1620684 58.3197949,15.2265641 C76.8975727,5.29105984 95.3248882,3.43056238e-15 146.141456,-5.90428975e-15 L146.141456,-5.90428975e-15 L365.858544,5.90428975e-15 L367.373356,0.00158667134 C417.043673,0.106285641 435.288205,5.39041488 453.680205,15.2265641 C472.257983,25.1620684 486.837932,39.7420171 496.773436,58.3197949 C506.70894,76.8975727 512,95.3248882 512,146.141456 L512,146.141456 Z" id="Combined-Shape" fill="url(#radialGradient-1)"></path>
            <g id="JD" transform="translate(94.000000, 145.000000)" fill="#FFFFFF" fill-rule="nonzero">
                <path d="M148,0 L148,157.276056 C148,177.078873 141.377026,192.816901 128.131078,204.490141 C114.88513,216.16338 97.2064834,222 75.0951374,222 C53.6095842,222 36.6088795,216.632394 24.0930233,205.897183 C11.577167,195.161972 3.54615927,180.309859 0,161.340845 L44.4312896,152.273239 C48.3946441,173.326761 58.6159267,183.853521 75.0951374,183.853521 C83.230444,183.853521 89.4883721,181.247887 93.8689218,176.03662 C98.2494715,170.825352 100.439746,163.008451 100.439746,152.585915 L100.439746,38.4591549 L28.4735729,38.4591549 L28.4735729,0 L148,0 Z" id="J"></path>
                <path d="M168,0 L238.368526,0 C267.349934,0 289.033865,9.31757402 303.420319,27.9527221 C317.806773,46.5878701 325,73.6036294 325,109 C325,144.396371 317.806773,171.41213 303.420319,190.047278 C289.033865,208.682426 267.349934,218 238.368526,218 L168,218 L168,0 Z M235.241036,181.146132 C262.13745,181.146132 275.585657,163.65616 275.585657,128.676218 L275.585657,89.0114613 C275.585657,54.2397326 262.13745,36.8538682 235.241036,36.8538682 L214.286853,36.8538682 L214.286853,181.146132 L235.241036,181.146132 Z" id="D"></path>
            </g>
        </g>
    </g>
</svg>