<?xml version="1.0" encoding="UTF-8"?>
<svg width="512px" height="512px" viewBox="0 0 512 512" version="1.1" xmlns="http://www.w3.org/2000/svg" xmlns:xlink="http://www.w3.org/1999/xlink">
    <title>Icon</title>
    <g id="Icon" stroke="none" stroke-width="1" fill="none" fill-rule="evenodd">
        <rect id="Background" fill="#000000" x="0" y="0" width="512" height="512"></rect>
        <g id="JD" transform="translate(94.000000, 145.000000)" fill="#FFFFFF" fill-rule="nonzero">
            <path d="M148,0 L148,157.276056 C148,177.078873 141.377026,192.816901 128.131078,204.490141 C114.88513,216.16338 97.2064834,222 75.0951374,222 C53.6095842,222 36.6088795,216.632394 24.0930233,205.897183 C11.577167,195.161972 3.54615927,180.309859 0,161.340845 L44.4312896,152.273239 C48.3946441,173.326761 58.6159267,183.853521 75.0951374,183.853521 C83.230444,183.853521 89.4883721,181.247887 93.8689218,176.03662 C98.2494715,170.825352 100.439746,163.008451 100.439746,152.585915 L100.439746,38.4591549 L28.4735729,38.4591549 L28.4735729,0 L148,0 Z" id="J"></path>
            <path d="M168,0 L238.368526,0 C267.349934,0 289.033865,9.31757402 303.420319,27.9527221 C317.806773,46.5878701 325,73.6036294 325,109 C325,144.396371 317.806773,171.41213 303.420319,190.047278 C289.033865,208.682426 267.349934,218 238.368526,218 L168,218 L168,0 Z M235.241036,181.146132 C262.13745,181.146132 275.585657,163.65616 275.585657,128.676218 L275.585657,89.0114613 C275.585657,54.2397326 262.13745,36.8538682 235.241036,36.8538682 L214.286853,36.8538682 L214.286853,181.146132 L235.241036,181.146132 Z" id="D"></path>
        </g>
    </g>
</svg>