<?xml version="1.0" standalone="no"?>
<!DOCTYPE svg PUBLIC "-//W3C//DTD SVG 20010904//EN"
 "http://www.w3.org/TR/2001/REC-SVG-20010904/DTD/svg10.dtd">
<svg version="1.0" xmlns="http://www.w3.org/2000/svg"
 width="700.000000pt" height="700.000000pt" viewBox="0 0 700.000000 700.000000"
 preserveAspectRatio="xMidYMid meet">
<metadata>
Created by potrace 1.14, written by Peter Selinger 2001-2017
</metadata>
<g transform="translate(0.000000,700.000000) scale(0.100000,-0.100000)"
fill="#000000" stroke="none">
<path d="M0 3500 l0 -3500 3500 0 3500 0 0 3500 0 3500 -3500 0 -3500 0 0
-3500z m3307 368 c-3 -1257 -1 -1200 -60 -1348 -98 -242 -317 -425 -591 -495
-298 -76 -641 -48 -876 70 -187 94 -340 265 -425 477 -43 107 -73 225 -60 236
17 15 585 126 594 116 4 -5 15 -37 24 -71 42 -157 139 -281 252 -323 77 -28
198 -31 272 -6 112 37 192 147 213 292 6 41 10 390 10 871 l0 803 -492 2 -493
3 -3 250 c-1 137 0 255 3 262 3 10 171 13 820 13 l816 0 -4 -1152z m1523 1124
c239 -51 387 -129 536 -284 252 -261 382 -718 360 -1274 -31 -824 -333 -1273
-923 -1374 -105 -18 -165 -20 -669 -20 l-554 0 0 1491 0 1491 578 -5 c534 -4
584 -6 672 -25z"/>
<path d="M4212 3528 l3 -983 172 -3 c261 -4 370 26 482 133 91 87 136 185 166
362 14 83 16 164 12 538 -3 415 -5 445 -26 524 -44 169 -126 289 -239 349 -99
53 -154 62 -374 62 l-198 0 2 -982z"/>
</g>
</svg>
